<?xml version="1.0" encoding="utf-8"?>
<svg viewBox="0 0 500 500" xmlns="http://www.w3.org/2000/svg">
  <line style="fill: rgb(216, 216, 216); stroke: rgb(0, 0, 0);" x1="170.351" y1="-5.885" x2="48.974" y2="446.478"/>
  <line style="fill: rgb(216, 216, 216); stroke: rgb(0, 0, 0);" x1="35.518" y1="75.751" x2="491.813" y2="75.751"/>
  <polygon style="fill: rgb(216, 216, 216); stroke: rgb(0, 0, 0);" points="149.081 75.54 211.313 75.988 218.656 100 127.869 432.594 53.801 432.594 60.032 407.334 107.625 407.334 190.602 100 141.738 100"/>
  <ellipse style="fill: rgb(216, 216, 216); stroke: rgb(0, 0, 0);" cx="127.218" cy="81.119" rx="23.965" ry="23.965"/>
  <ellipse style="fill: rgb(216, 216, 216); stroke: rgb(0, 0, 0);" cx="127.718" cy="80.939" rx="14.601" ry="14.601"/>
  <line style="fill: rgb(216, 216, 216); stroke: rgb(0, 0, 0);" x1="426.374" y1="37.967" x2="317.122" y2="445.702"/>
  <line style="fill: rgb(216, 216, 216); stroke: rgb(0, 0, 0);" x1="201.914" y1="200.337" x2="455.565" y2="200.337"/>
  <line style="fill: rgb(216, 216, 216); stroke: rgb(0, 0, 0);" x1="194.31" y1="226.412" x2="466.271" y2="226.412"/>
  <line style="fill: rgb(216, 216, 216); stroke: rgb(0, 0, 0);" x1="232.302" y1="91.643" x2="135.367" y2="453.412"/>
  <line style="fill: rgb(216, 216, 216); stroke: rgb(0, 0, 0);" x1="116.927" y1="432.487" x2="485.622" y2="432.487"/>
  <ellipse style="fill: rgb(216, 216, 216); stroke: rgb(0, 0, 0);" cx="36.965" cy="414.947" rx="23.965" ry="23.965"/>
  <ellipse style="fill: rgb(216, 216, 216); stroke: rgb(0, 0, 0);" cx="37.465" cy="414.767" rx="14.601" ry="14.601"/>
  <line style="fill: rgb(216, 216, 216); stroke: rgb(0, 0, 0);" x1="179.996" y1="99.905" x2="474.857" y2="100"/>
  <line style="fill: rgb(216, 216, 216); stroke: rgb(0, 0, 0);" x1="230.436" y1="98.353" x2="212.203" y2="30.305"/>
  <line style="fill: rgb(216, 216, 216); stroke: rgb(0, 0, 0);" x1="449.686" y1="100.831" x2="431.453" y2="32.783"/>
  <line style="fill: rgb(216, 216, 216); stroke: rgb(0, 0, 0);" x1="408.377" y1="10.681" x2="287" y2="463.044"/>
  <polygon style="fill: rgb(216, 216, 216); stroke: rgb(0, 0, 0);" points="224.727 75.987 404.009 75.987 410.443 100 376.523 226.592 196.099 226.592 203.224 200 357.044 200 383.839 100 230.539 100"/>
  <line style="fill: rgb(216, 216, 216); stroke: rgb(0, 0, 0);" x1="106.639" y1="238.358" x2="469.857" y2="238.358"/>
  <line style="fill: rgb(216, 216, 216); stroke: rgb(0, 0, 0);" x1="94.115" y1="264.302" x2="473.106" y2="264.302"/>
  <line style="fill: rgb(216, 216, 216); stroke: rgb(0, 0, 0);" x1="203.719" y1="158.186" x2="377.957" y2="459.977"/>
  <line style="fill: rgb(216, 216, 216); stroke: rgb(0, 0, 0);" x1="263.139" y1="206.99" x2="437.377" y2="508.781"/>
  <line style="fill: rgb(216, 216, 216); stroke: rgb(0, 0, 0);" x1="96.351" y1="407.438" x2="468.506" y2="407.438"/>
  <line style="fill: rgb(216, 216, 216); stroke: rgb(0, 0, 0);" x1="551.968" y1="-177.927" x2="430.591" y2="274.436"/>
  <line style="fill: rgb(216, 216, 216); stroke: rgb(0, 0, 0);" x1="331.641" y1="209.129" x2="505.879" y2="510.92"/>
  <line style="fill: rgb(216, 216, 216); stroke: rgb(0, 0, 0);" x1="337.826" y1="-8.022" x2="216.449" y2="444.341"/>
  <polygon style="fill: rgb(216, 216, 216); stroke: rgb(0, 0, 0);" points="440.773 238.358 347.287 238.358 301.879 407.824 226.068 407.824 219.453 432.513 320.897 432.513 365.894 264.58 433.169 264.58"/>
  <line style="fill: rgb(216, 216, 216); stroke: rgb(0, 0, 0);" x1="403.106" y1="3.678" x2="281.729" y2="456.041"/>
  <line style="fill: rgb(216, 216, 216); stroke: rgb(0, 0, 0);" x1="443.106" y1="3.678" x2="321.729" y2="456.041"/>
  <polygon style="fill: rgb(216, 216, 216); stroke: rgb(0, 0, 0);" points="193.415 238.805 281.535 238.805 321.62 308.236 311.574 345.73 264.749 264.626 186.258 264.626"/>
  <polygon style="fill: rgb(216, 216, 216); stroke: rgb(0, 0, 0);" points="349.076 355.999 378.956 407.752 446.14 407.752 460.735 433.031 361.6 433.031 338.836 393.602"/>
  <ellipse style="fill: rgb(216, 216, 216); stroke: rgb(0, 0, 0);" cx="454.77" cy="255.25" rx="23.965" ry="23.965"/>
  <ellipse style="fill: rgb(216, 216, 216); stroke: rgb(0, 0, 0);" cx="455.27" cy="255.07" rx="14.601" ry="14.601"/>
  <ellipse style="fill: rgb(216, 216, 216); stroke: rgb(0, 0, 0);" cx="466.952" cy="418.279" rx="23.965" ry="23.965"/>
  <ellipse style="fill: rgb(216, 216, 216); stroke: rgb(0, 0, 0);" cx="467.452" cy="418.099" rx="14.601" ry="14.601"/>
  <path style="fill: rgb(216, 216, 216); stroke: rgb(0, 0, 0);" d="M 55.227 168.368 L 63.596 166.399 C 62.902 155.619 56.05 143.84 40.951 145.233 C -4.043 151.437 18.593 206.459 44.307 196.294 C 58.592 198.607 68.276 178.139 63.596 171.322 L 54.736 172.798 C 55.392 191.833 28.145 191.341 28.153 172.306 C 23.361 156.813 51.978 146.45 55.227 168.368 Z"/>
</svg>