<?xml version="1.0" encoding="utf-8"?>
<svg viewBox="0 0 500 500" xmlns="http://www.w3.org/2000/svg">
  <polygon style="fill: rgb(216, 216, 216); stroke: rgb(0, 0, 0);" points="145.081 71.54 207.313 71.988 214.656 96 123.869 428.594 49.801 428.594 56.032 403.334 103.625 403.334 186.602 96 137.738 96"/>
  <polygon style="fill: rgb(216, 216, 216); stroke: rgb(0, 0, 0);" points="220.727 71.987 400.009 71.987 406.443 96 372.523 222.592 192.099 222.592 199.224 196 353.044 196 379.839 96 226.539 96"/>
  <polygon style="fill: rgb(216, 216, 216); stroke: rgb(0, 0, 0);" points="436.773 234.358 343.287 234.358 297.879 403.824 222.068 403.824 215.453 428.513 316.897 428.513 361.894 260.58 429.169 260.58"/>
  <polygon style="fill: rgb(216, 216, 216); stroke: rgb(0, 0, 0);" points="189.415 234.805 277.535 234.805 317.62 304.236 307.574 341.73 260.749 260.626 182.258 260.626"/>
  <polygon style="fill: rgb(216, 216, 216); stroke: rgb(0, 0, 0);" points="345.076 351.999 374.956 403.752 442.14 403.752 456.735 429.031 357.6 429.031 334.836 389.602"/>
  <path style="fill: rgb(216, 216, 216); stroke: rgb(0, 0, 0);" d="M 140.793 82.407 L 149.162 80.438 C 148.468 69.658 141.616 57.879 126.517 59.272 C 81.523 65.476 104.159 120.498 129.873 110.333 C 144.158 112.646 153.842 92.178 149.162 85.361 L 140.302 86.837 C 140.958 105.872 113.264 105.827 113.272 86.792 C 108.48 71.299 137.544 60.489 140.793 82.407 Z" transform="matrix(0.987081, 0.160223, -0.160222, 0.987081, 15.300756, -19.019508)"/>
  <path style="fill: rgb(216, 216, 216); stroke: rgb(0, 0, 0);" d="M 52.3 413.876 L 60.669 411.907 C 59.975 401.127 53.123 389.348 38.024 390.741 C -6.97 396.945 15.666 451.967 41.38 441.802 C 55.665 444.115 65.349 423.647 60.669 416.83 L 51.809 418.306 C 52.465 437.341 24.771 437.296 24.779 418.261 C 19.987 402.768 49.051 391.958 52.3 413.876 Z" transform="matrix(0.989105, 0.147215, -0.147214, 0.989105, 61.768708, -0.919619)"/>
  <path style="fill: rgb(216, 216, 216); stroke: rgb(0, 0, 0);" d="M 463.736 245.559 L 472.105 243.59 C 471.411 232.81 464.559 221.031 449.46 222.424 C 404.466 228.628 427.102 283.65 452.816 273.485 C 467.101 275.798 476.785 255.33 472.105 248.513 L 463.245 249.989 C 463.901 269.024 436.207 268.979 436.215 249.944 C 431.423 234.451 460.487 223.641 463.736 245.559 Z" transform="matrix(-0.985857, -0.167587, 0.167586, -0.985857, 849.073901, 568.699162)"/>
  <path style="fill: rgb(216, 216, 216); stroke: rgb(0, 0, 0);" d="M 480.049 410.955 L 488.418 408.986 C 487.724 398.206 480.872 386.427 465.773 387.82 C 420.779 394.024 443.415 449.046 469.129 438.881 C 483.414 441.194 493.098 420.726 488.418 413.909 L 479.558 415.385 C 480.214 434.42 452.52 434.375 452.528 415.34 C 447.736 399.847 476.8 389.037 480.049 410.955 Z" transform="matrix(-0.941105, 0.338117, -0.338114, -0.941105, 1042.266739, 646.287424)"/>
</svg>