<svg width="24" height="24" viewBox="0 0 24 24">
  <path d="M 21.36,7.18
           C 20.98,7.38 17.53,9.83 15.24,11.31
             15.24,11.31 19.10,15.65 19.10,15.65
             19.19,15.74 19.23,15.85 19.18,15.91
             19.12,15.96 19.00,15.93 18.90,15.84
             18.90,15.84 14.28,11.94 14.28,11.94
             13.58,12.39 13.09,12.70 13.01,12.75
             12.65,12.93 12.39,12.96 12.05,12.96
             11.70,12.96 11.45,12.93 11.09,12.75
             11.00,12.70 10.51,12.39 9.81,11.94
             9.81,11.94 5.19,15.84 5.19,15.84
             5.10,15.94 4.97,15.97 4.91,15.91
             4.86,15.86 4.90,15.74 4.99,15.65
             4.99,15.65 8.84,11.31 8.84,11.31
             6.56,9.83 3.07,7.38 2.69,7.18
             2.27,6.97 2.25,7.22 2.25,7.41
             2.25,7.60 2.25,17.02 2.25,17.02
             2.25,17.46 2.89,18.00 3.35,18.00
             3.35,18.00 12.05,18.00 12.05,18.00
             12.05,18.00 20.74,18.00 20.74,18.00
             21.20,18.00 21.75,17.45 21.75,17.02
             21.75,17.02 21.75,7.60 21.75,7.41
             21.75,7.21 21.78,6.97 21.36,7.18 Z
           M 3.14,6.97
           C 3.66,7.24 10.82,11.15 11.09,11.29
             11.35,11.43 11.62,11.49 12.05,11.49
             12.47,11.49 12.74,11.43 13.01,11.29
             13.27,11.15 20.44,7.24 20.95,6.97
             21.15,6.87 21.47,6.69 21.54,6.49
             21.66,6.14 21.53,6.00 21.01,6.00
             21.01,6.00 12.05,6.00 12.05,6.00
             12.05,6.00 3.08,6.00 3.08,6.00
             2.56,6.00 2.43,6.14 2.55,6.49
             2.62,6.70 2.95,6.87 3.14,6.97 Z"/>
</svg>
