<svg fill="#111" width="64" height="64" viewBox="0 0 64 64" xmlns="http://www.w3.org/2000/svg">
  <!-- <path fill="#111" d="M0 0h64v64H0V0z"/> -->
  <path fill="#fff" d="M 55.43,31.86
           C 55.43,31.86 54.33,31.93 54.33,31.93
             54.19,33.30 54.80,34.94 56.74,35.08
             62.55,35.27 60.87,27.84 57.41,28.57
             55.65,27.97 53.99,30.35 54.44,31.31
             54.44,31.31 55.59,31.31 55.59,31.31
             55.91,28.89 59.41,29.49 59.00,31.90
             59.27,33.95 55.37,34.69 55.43,31.86 Z
           M 18.57,9.16
           C 18.57,9.16 26.54,9.21 26.54,9.21
             26.54,9.21 27.48,12.29 27.48,12.29
             27.48,12.29 15.86,54.86 15.86,54.86
             15.86,54.86 6.37,54.86 6.37,54.86
             6.37,54.86 7.17,51.63 7.17,51.63
             7.17,51.63 13.26,51.63 13.26,51.63
             13.26,51.63 23.89,12.29 23.89,12.29
             23.89,12.29 17.63,12.29 17.63,12.29
             17.63,12.29 18.57,9.16 18.57,9.16 Z
           M 6.73,53.27
           C 6.73,53.27 7.83,53.18 7.83,53.18
             7.94,51.80 7.30,50.18 5.36,50.07
             -0.46,50.01 1.37,57.40 4.82,56.60
             6.59,57.16 8.20,54.75 7.73,53.80
             7.73,53.80 6.58,53.82 6.58,53.82
             6.31,56.24 2.80,55.71 3.16,53.30
             2.85,51.25 6.73,50.43 6.73,53.27 Z
           M 18.06,10.86
           C 18.06,10.86 19.15,10.79 19.15,10.79
             19.29,9.41 18.66,7.78 16.73,7.65
             10.92,7.51 12.65,14.93 16.10,14.17
             17.86,14.75 19.51,12.37 19.05,11.41
             19.05,11.41 17.90,11.41 17.90,11.41
             17.60,13.83 14.10,13.26 14.49,10.85
             14.20,8.80 18.10,8.03 18.06,10.86 Z
           M 44.17,45.06
           C 44.17,45.06 47.99,51.68 47.99,51.68
             47.99,51.68 56.59,51.68 56.59,51.68
             56.59,51.68 58.46,54.92 58.46,54.92
             58.46,54.92 45.77,54.92 45.77,54.92
             45.77,54.92 42.86,49.87 42.86,49.87
             42.86,49.87 44.17,45.06 44.17,45.06 Z
           M 24.25,30.06
           C 24.25,30.06 35.52,30.06 35.52,30.06
             35.52,30.06 40.66,38.94 40.66,38.94
             40.66,38.94 39.37,43.74 39.37,43.74
             39.37,43.74 33.38,33.36 33.38,33.36
             33.38,33.36 23.33,33.36 23.33,33.36
             23.33,33.36 24.25,30.06 24.25,30.06 Z
           M 55.91,30.00
           C 55.91,30.00 43.94,30.00 43.94,30.00
             43.94,30.00 38.13,51.69 38.13,51.69
             38.13,51.69 28.42,51.69 28.42,51.69
             28.42,51.69 27.58,54.85 27.58,54.85
             27.58,54.85 40.56,54.85 40.56,54.85
             40.56,54.85 46.32,33.35 46.32,33.35
             46.32,33.35 54.93,33.35 54.93,33.35
             54.93,33.35 55.91,30.00 55.91,30.00 Z
           M 28.25,9.21
           C 28.25,9.21 51.20,9.21 51.20,9.21
             51.20,9.21 52.02,12.29 52.02,12.29
             52.02,12.29 47.68,28.49 47.68,28.49
             47.68,28.49 24.59,28.49 24.59,28.49
             24.59,28.49 25.50,25.09 25.50,25.09
             25.50,25.09 45.19,25.09 45.19,25.09
             45.19,25.09 48.62,12.29 48.62,12.29
             48.62,12.29 29.00,12.29 29.00,12.29
             29.00,12.29 28.25,9.21 28.25,9.21 Z
           M 57.80,54.00
           C 57.80,54.00 56.87,54.60 56.87,54.60
             57.42,55.86 58.76,56.99 60.52,56.17
             65.67,53.47 60.56,47.82 57.90,50.16
             56.08,50.50 55.80,53.38 56.66,54.00
             56.66,54.00 57.66,53.44 57.66,53.44
             56.76,51.18 60.10,49.98 60.92,52.28
             62.17,53.94 59.14,56.50 57.80,54.00 Z"/>
</svg>
